<?xml version="1.0" encoding="utf-8"?>
<!-- Generator: Adobe Illustrator 15.0.0, SVG Export Plug-In . SVG Version: 6.00 Build 0)  -->
<!DOCTYPE svg PUBLIC "-//W3C//DTD SVG 1.1//EN" "http://www.w3.org/Graphics/SVG/1.1/DTD/svg11.dtd">
<svg version="1.1" id="图层_1" xmlns="http://www.w3.org/2000/svg" xmlns:xlink="http://www.w3.org/1999/xlink" x="0px" y="0px"
	 width="200px" height="200px" viewBox="0 0 200 200" enable-background="new 0 0 200 200" xml:space="preserve">
<path d="M100,0C44.771,0,0,44.771,0,100s44.771,100,100,100s100-44.771,100-100S155.229,0,100,0z M100,159.996
	c-33.135,0-59.996-26.861-59.996-59.996S66.865,40.004,100,40.004S159.996,66.865,159.996,100S133.135,159.996,100,159.996z
	 M100,49.998c-27.615,0-50.002,22.387-50.002,50.002S72.385,150.002,100,150.002s50.002-22.387,50.002-50.002
	S127.615,49.998,100,49.998z M98,72c-14.654,0-24,6.107-24,18c0,0.553-4.447-1-5-1s-1-0.447-1-1c0-14.188,11.273-22,28-22
	c0.553,0,1,0.447,1,1S98.553,72,98,72z"/>
</svg>
