<?xml version="1.0" encoding="utf-8"?>
<!-- Generator: Adobe Illustrator 15.0.0, SVG Export Plug-In . SVG Version: 6.00 Build 0)  -->
<!DOCTYPE svg PUBLIC "-//W3C//DTD SVG 1.1//EN" "http://www.w3.org/Graphics/SVG/1.1/DTD/svg11.dtd">
<svg version="1.1" id="图层_1" xmlns="http://www.w3.org/2000/svg" xmlns:xlink="http://www.w3.org/1999/xlink" x="0px" y="0px"
	 width="200px" height="200px" viewBox="0 0 200 200" enable-background="new 0 0 200 200" xml:space="preserve">
<path d="M101.281,114.086c16.234,0,29.439-13.21,29.439-29.449c0-16.237-13.205-29.447-29.439-29.447
	c-16.235,0-29.441,13.21-29.441,29.447C71.84,100.876,85.046,114.086,101.281,114.086z M101.281,59.461
	c13.881,0,25.17,11.293,25.17,25.176c0,13.885-11.289,25.177-25.17,25.177c-13.879,0-25.171-11.292-25.171-25.177
	C76.11,70.754,87.402,59.461,101.281,59.461z M138.419,64.251c2.827,0,5.116-2.295,5.116-5.125c0-2.83-2.289-5.126-5.116-5.126
	c-2.823,0-5.114,2.295-5.114,5.126C133.305,61.957,135.596,64.251,138.419,64.251z M62,30H39v5h23V30z M36.98,135h131.206
	c4.785,0,5.813-6.846,5.813-11.6V48.369c0-4.755-1.028-5.369-5.813-5.369h-36.947c-1.397-3-2.521-9.791-3.523-11.646
	c-1.9-3.506-3.398-6.354-6.146-6.354H83.6c-2.746,0-4.247,2.848-6.146,6.352C76.448,33.209,75.324,40,73.926,43H36.98
	C32.198,43,26,43.614,26,48.369V123.4C26,128.154,32.198,135,36.98,135z M33,51.921C33,49.485,37.926,51,40.375,51h36.658
	l0.643-2.539c1.959-2.399,4.918-12.667,6.097-14.839c0.86-1.588,0.575-3.24,0.928-3.521l35.438-0.269
	c0.602,0.331,1.791,2.417,2.659,4.02c1.185,2.19,2.654,12.265,4.61,14.663L128.053,51h36.658c2.451,0,2.289-1.515,2.289,0.921v68
	c0,2.437,0.162,7.078-2.289,7.078H40.375c-2.449,0-7.375-4.644-7.375-7.078V51.921z M178.949,108.368l0.117,5.585
	c6.978,3.709,10.754,7.609,10.754,10.934c0,9.889-26.451,23.297-77.155,23.586l0.093,15.209
	C161.626,163.421,200,146.546,200,124.887C200,117.709,190.922,112.291,178.949,108.368z M66.524,148.473
	c-36.061-4.4-56.226-16.236-56.226-23.274c0-4.039,5.449-8.867,15.365-13.167l-0.143-5.495C9.894,110.294,0,117.783,0,125.197
	c0,22.156,32.045,32.494,66.477,36.587l-0.12,13.715l31.087-18.851l-30.847-21.563L66.524,148.473z"/>
</svg>
