<?xml version="1.0" encoding="utf-8"?>
<!-- Generator: Adobe Illustrator 15.0.0, SVG Export Plug-In . SVG Version: 6.00 Build 0)  -->
<!DOCTYPE svg PUBLIC "-//W3C//DTD SVG 1.1//EN" "http://www.w3.org/Graphics/SVG/1.1/DTD/svg11.dtd">
<svg version="1.1" id="图层_1" xmlns="http://www.w3.org/2000/svg" xmlns:xlink="http://www.w3.org/1999/xlink" x="0px" y="0px"
	 width="200px" height="200px" viewBox="0 0 200 200" enable-background="new 0 0 200 200" xml:space="preserve">
<path fill-rule="evenodd" clip-rule="evenodd" d="M134.398,100l58.476-58.478c9.501-9.499,9.501-24.898,0-34.397
	c-9.496-9.499-24.897-9.499-34.399,0L100,65.6L41.521,7.125c-9.499-9.499-24.898-9.499-34.397,0c-9.499,9.499-9.499,24.898,0,34.397
	L65.6,100L7.125,158.475c-9.499,9.502-9.499,24.903,0,34.399c9.499,9.501,24.898,9.501,34.397,0L100,134.396l58.475,58.478
	c9.502,9.501,24.903,9.501,34.399,0c9.501-9.496,9.501-24.897,0-34.399L134.398,100z"/>
</svg>
