<?xml version="1.0" encoding="utf-8"?>
<!-- Generator: Adobe Illustrator 15.0.0, SVG Export Plug-In . SVG Version: 6.00 Build 0)  -->
<!DOCTYPE svg PUBLIC "-//W3C//DTD SVG 1.1//EN" "http://www.w3.org/Graphics/SVG/1.1/DTD/svg11.dtd">
<svg version="1.1" id="图层_1" xmlns="http://www.w3.org/2000/svg" xmlns:xlink="http://www.w3.org/1999/xlink" x="0px" y="0px"
	 width="200px" height="200px" viewBox="0 0 200 200" enable-background="new 0 0 200 200" xml:space="preserve">
<path d="M187.181,44c0,0-105.955,0-111.713,0c-8.376,0-12.563-14-20.939-14c-8.376,0-41.877,0-41.877,0C5.712,30,0,35.547,0,42.39
	v34.656v80.98v3.885l1.108,1.08c1.209,2.717,3.409,4.699,6.116,5.98L8.461,170h4.016c0.06,0,0.115,0,0.173,0h174.53
	c0.059,0,0.113,0,0.172,0h4.02l1.216-1.036c2.704-1.282,5.01-3.355,6.22-6.069L200,161.91v-3.885v-80.98V54.78
	C200,47.937,194.12,44,187.181,44z M12.65,37c0,0,29.314,0,37.69,0c12.563,0,8.376,14,20.938,14c10.472,0,115.902,0,115.902,0
	c2.313,0,2.819,1.498,2.819,3.78V65c0,0-178.083,0-182,0V42.39C8,40.107,10.336,37,12.65,37z"/>
</svg>
