<?xml version="1.0" encoding="utf-8"?>
<!-- Generator: Adobe Illustrator 15.0.0, SVG Export Plug-In . SVG Version: 6.00 Build 0)  -->
<!DOCTYPE svg PUBLIC "-//W3C//DTD SVG 1.1//EN" "http://www.w3.org/Graphics/SVG/1.1/DTD/svg11.dtd">
<svg version="1.1" id="图层_1" xmlns="http://www.w3.org/2000/svg" xmlns:xlink="http://www.w3.org/1999/xlink" x="0px" y="0px"
	 width="200px" height="200px" viewBox="0 0 200 200" enable-background="new 0 0 200 200" xml:space="preserve">
<path display="none" d="M175.551,73.5c-0.986-0.086-2.039,0.076-3.111,0.414C169.264,22.376,138.053,0,99.995,0
	C61.938,0,30.729,22.376,27.553,73.913c-1.072-0.338-2.122-0.498-3.107-0.413c-6.88,0.599-8.209,11.812-7.014,25.398
	c1.196,13.586,7.742,24.116,14.622,23.518c0.048-0.005,0.093-0.021,0.141-0.027C42.752,164.893,69.126,200,99.995,200
	s57.241-35.107,67.801-77.609c0.05,0.004,0.095,0.021,0.146,0.026c6.882,0.599,13.431-9.931,14.627-23.518
	C183.764,85.313,182.434,74.099,175.551,73.5z"/>
<path d="M176.511,69.946c-0.465-6.586-6.51-15.891-6.51-15.891s3.721,2.3,5.579,3.345c-3.951-18.922-19.994-25.091-19.994-25.091
	s3.604-0.104,4.65-0.418c-0.581-2.509-7.44-5.437-7.44-5.437s3.139-0.418,5.58-0.418c-4.999-5.228-13.95-5.75-18.135-5.018
	c-3.255-9.827-10.695-13.382-10.695-13.382s0.35,3.45-0.465,6.69C115.829-2.191,100.717,0.109,100.717,0.109
	s7.789,4.809,8.835,7.945C96.299,0.737,86.767,0.946,86.767,0.946s2.79,5.437,2.79,8.782c-8.254-3.45-21.39-3.764-21.39-3.764
	s8.603,3.764,8.835,5.854c-5.696-0.627-19.064,0.418-19.064,0.418s3.139,1.15,4.65,3.763c-14.88,2.405-19.064,10.037-19.064,10.037
	s4.766-2.3,7.44-1.254c-19.065,9.305-19.065,16.727-19.065,16.727s3.72-1.777,6.51-0.836c-7.208,4.914-13.02,14.218-13.02,14.218
	s2.906-1.568,6.51-1.255c-11.393,12.441-7.905,23.418-7.905,23.418s1.628-5.018,4.65-5.854c-0.813,2.614-1.511,15.159-1.395,16.728
	c0.232-0.732,2.325-0.732,3.72-0.836c-0.116,1.881,0.974,7.977,1.86,9.2c-12.671,6.272,2.558,30.632,7.905,33.873
	c0,15.785,19.646,69.836,59.519,69.836c34.527,0,59.055-40.773,59.055-69.836c1.743-1.464,8.369-8.363,11.159-16.728
	s1.512-14.009-2.79-17.982c8.37-8.886,2.79-12.127,2.79-12.127s3.022,1.046,4.649,1.673c0.814-3.659-1.394-16.727-1.394-16.727
	S175.232,68.795,176.511,69.946z"/>
</svg>
