<?xml version="1.0" encoding="utf-8"?>
<!-- Generator: Adobe Illustrator 15.0.0, SVG Export Plug-In . SVG Version: 6.00 Build 0)  -->
<!DOCTYPE svg PUBLIC "-//W3C//DTD SVG 1.1//EN" "http://www.w3.org/Graphics/SVG/1.1/DTD/svg11.dtd">
<svg version="1.1" id="图层_1" xmlns="http://www.w3.org/2000/svg" xmlns:xlink="http://www.w3.org/1999/xlink" x="0px" y="0px"
	 width="80px" height="80px" viewBox="60 60 80 80" enable-background="new 60 60 80 80" xml:space="preserve">
<path d="M130.221,89.4c-0.395-0.034-0.815,0.031-1.245,0.166C127.706,68.95,115.222,60,99.998,60
	c-15.223,0-27.707,8.95-28.977,29.565c-0.429-0.135-0.849-0.199-1.243-0.166c-2.752,0.24-3.284,4.725-2.805,10.159
	c0.478,5.435,3.097,9.646,5.849,9.408c0.019-0.002,0.037-0.009,0.056-0.012C77.101,125.957,87.65,140,99.998,140
	s22.896-14.043,27.12-31.044c0.021,0.002,0.038,0.009,0.059,0.011c2.753,0.239,5.372-3.973,5.851-9.407S132.974,89.64,130.221,89.4z
	"/>
</svg>
