<?xml version="1.0" encoding="utf-8"?>
<!-- Generator: Adobe Illustrator 15.0.0, SVG Export Plug-In . SVG Version: 6.00 Build 0)  -->
<!DOCTYPE svg PUBLIC "-//W3C//DTD SVG 1.1//EN" "http://www.w3.org/Graphics/SVG/1.1/DTD/svg11.dtd">
<svg version="1.1" id="图层_1" xmlns="http://www.w3.org/2000/svg" xmlns:xlink="http://www.w3.org/1999/xlink" x="0px" y="0px"
	 width="80px" height="80px" viewBox="0 0 80 80" enable-background="new 0 0 80 80" xml:space="preserve">
<path d="M130.604,87.979c-0.187-2.635-2.604-6.356-2.604-6.356s1.488,0.92,2.231,1.338c-1.58-7.569-7.997-10.036-7.997-10.036
	s1.441-0.042,1.86-0.168c-0.232-1.003-2.977-2.174-2.977-2.174s1.256-0.167,2.232-0.167c-2-2.092-5.58-2.3-7.254-2.008
	c-1.303-3.931-4.278-5.353-4.278-5.353s0.14,1.38-0.187,2.676c-5.301-6.607-11.346-5.687-11.346-5.687s3.116,1.923,3.534,3.178
	c-5.301-2.927-9.114-2.844-9.114-2.844s1.116,2.175,1.116,3.513c-3.302-1.38-8.556-1.505-8.556-1.505s3.44,1.505,3.534,2.342
	c-2.278-0.251-7.626,0.167-7.626,0.167s1.255,0.46,1.859,1.506c-5.951,0.961-7.625,4.015-7.625,4.015s1.906-0.921,2.976-0.502
	c-7.626,3.722-7.626,6.69-7.626,6.69s1.488-0.711,2.604-0.334c-2.883,1.965-5.208,5.687-5.208,5.687s1.163-0.627,2.604-0.501
	c-4.557,4.976-3.162,9.367-3.162,9.367s0.651-2.008,1.86-2.342c-0.326,1.045-0.604,6.063-0.559,6.69
	c0.094-0.293,0.931-0.293,1.488-0.334c-0.047,0.752,0.39,3.19,0.744,3.68c-5.068,2.509,1.022,12.253,3.162,13.549
	c0,6.314,7.858,27.935,23.808,27.935c13.811,0,23.622-16.31,23.622-27.935c0.697-0.585,3.348-3.345,4.464-6.69
	c1.115-3.346,0.604-5.604-1.116-7.193c3.348-3.555,1.116-4.851,1.116-4.851s1.209,0.418,1.859,0.669
	c0.326-1.463-0.558-6.69-0.558-6.69S130.093,87.518,130.604,87.979z"/>
</svg>
