<?xml version="1.0" encoding="utf-8"?>
<!-- Generator: Adobe Illustrator 15.0.0, SVG Export Plug-In . SVG Version: 6.00 Build 0)  -->
<!DOCTYPE svg PUBLIC "-//W3C//DTD SVG 1.1//EN" "http://www.w3.org/Graphics/SVG/1.1/DTD/svg11.dtd">
<svg version="1.1" id="图层_1" xmlns="http://www.w3.org/2000/svg" xmlns:xlink="http://www.w3.org/1999/xlink" x="0px" y="0px"
	 width="200px" height="200px" viewBox="0 0 200 200" enable-background="new 0 0 200 200" xml:space="preserve">
<path fill-rule="evenodd" clip-rule="evenodd" d="M175.551,73.5c-0.987-0.086-2.039,0.076-3.112,0.414
	C169.263,22.376,138.053,0,99.995,0C61.938,0,30.729,22.376,27.553,73.913c-1.072-0.338-2.122-0.498-3.107-0.413
	c-6.88,0.599-8.209,11.812-7.014,25.398c1.196,13.587,7.742,24.116,14.622,23.518c0.048-0.005,0.093-0.021,0.141-0.027
	C42.752,164.893,69.126,200,99.995,200c30.869,0,57.242-35.108,67.801-77.61c0.049,0.005,0.095,0.022,0.145,0.027
	c6.882,0.598,13.431-9.931,14.627-23.518C183.764,85.313,182.433,74.099,175.551,73.5z"/>
</svg>
