<?xml version="1.0" encoding="utf-8"?>
<!-- Generator: Adobe Illustrator 15.0.0, SVG Export Plug-In . SVG Version: 6.00 Build 0)  -->
<!DOCTYPE svg PUBLIC "-//W3C//DTD SVG 1.1//EN" "http://www.w3.org/Graphics/SVG/1.1/DTD/svg11.dtd">
<svg version="1.1" id="图层_1" xmlns="http://www.w3.org/2000/svg" xmlns:xlink="http://www.w3.org/1999/xlink" x="0px" y="0px"
	 width="200px" height="200px" viewBox="0 0 200 200" enable-background="new 0 0 200 200" xml:space="preserve">
<path fill-rule="evenodd" clip-rule="evenodd" d="M191.356,23H8.776C3.501,23,0,27.169,0,31.78v136.093
	C0,173.148,3.235,177,8.377,177h182.979c4.877,0,8.644-3.716,8.644-9.127V32.046C200,27.302,196.632,23,191.356,23z M187.234,166
	H12.766c-1.643,0-3.051-1-3.761-2.362l90.993-45.639l90.063,46.858C189.31,165.533,188.325,166,187.234,166z M119.373,121.408
	l24.861-13.725l25.682,14.484L147,135.108v0.888L119.373,121.408z M191,158.669l-38.156-19.834L191,116.977V158.669z M191,110.12
	l-17,9.315v-1.467l-30.5-17.14l-30.5,17.14v0.254l-13.095-7.111L9,156.969V36.17C9,33.818,10.416,32,12.766,32h174.468
	c2.35,0,3.766,1.818,3.766,4.17V110.12z M58.967,42.553c-13.22,0-23.938,10.742-23.938,23.994c0,13.252,10.717,23.997,23.938,23.997
	c13.219,0,23.935-10.744,23.935-23.997C82.902,53.295,72.186,42.553,58.967,42.553z"/>
</svg>
