<?xml version="1.0" encoding="utf-8"?>
<!-- Generator: Adobe Illustrator 15.0.0, SVG Export Plug-In . SVG Version: 6.00 Build 0)  -->
<!DOCTYPE svg PUBLIC "-//W3C//DTD SVG 1.1//EN" "http://www.w3.org/Graphics/SVG/1.1/DTD/svg11.dtd">
<svg version="1.1" id="图层_1" xmlns="http://www.w3.org/2000/svg" xmlns:xlink="http://www.w3.org/1999/xlink" x="0px" y="0px"
	 width="200px" height="200px" viewBox="0 0 200 200" enable-background="new 0 0 200 200" xml:space="preserve">
<path d="M195.684,86.752l-15.91,0.027c-1.619-10.947-5.26-21.781-11.13-31.949C143.673,11.582,88.398-3.253,45.179,21.698
	C1.961,46.65-12.833,101.938,12.137,145.189c21.244,36.794,64.422,53.002,103.449,41.659l-6.837-11.841
	c-32.593,8.041-67.893-5.923-85.531-36.474C1.841,101.51,14.505,54.181,51.505,32.819c36.997-21.361,84.318-8.663,105.694,28.361
	c4.715,8.169,7.758,16.84,9.258,25.621l-15.651,0.027c-3.751-0.262-5.444,0.4-3.88,3.841l26.211,45.724
	c0.512-1.167,26.009-45.466,26.009-45.466C201.169,87.74,199.435,87.017,195.684,86.752z"/>
</svg>
