<?xml version="1.0" encoding="utf-8"?>
<!-- Generator: Adobe Illustrator 15.0.0, SVG Export Plug-In . SVG Version: 6.00 Build 0)  -->
<!DOCTYPE svg PUBLIC "-//W3C//DTD SVG 1.1//EN" "http://www.w3.org/Graphics/SVG/1.1/DTD/svg11.dtd">
<svg version="1.1" id="图层_1" xmlns="http://www.w3.org/2000/svg" xmlns:xlink="http://www.w3.org/1999/xlink" x="0px" y="0px"
	 width="200px" height="200px" viewBox="0 0 200 200" enable-background="new 0 0 200 200" xml:space="preserve">
<path d="M4.316,86.752l15.91,0.027c1.619-10.947,5.26-21.781,11.13-31.949C56.327,11.582,111.602-3.253,154.82,21.698
	c43.218,24.952,58.013,80.239,33.043,123.491c-21.244,36.794-64.423,53.002-103.449,41.659l6.837-11.841
	c32.593,8.041,67.893-5.923,85.531-36.474c21.376-37.024,8.712-84.354-28.288-105.715c-36.997-21.361-84.317-8.663-105.693,28.361
	c-4.715,8.169-7.758,16.84-9.258,25.621l15.651,0.027c3.751-0.262,5.444,0.4,3.88,3.841l-26.211,45.724
	c-0.512-1.167-26.009-45.466-26.009-45.466C-1.169,87.74,0.565,87.017,4.316,86.752z"/>
</svg>
