<?xml version="1.0" encoding="utf-8"?>
<!-- Generator: Adobe Illustrator 15.0.0, SVG Export Plug-In . SVG Version: 6.00 Build 0)  -->
<!DOCTYPE svg PUBLIC "-//W3C//DTD SVG 1.1//EN" "http://www.w3.org/Graphics/SVG/1.1/DTD/svg11.dtd">
<svg version="1.1" id="图层_1" xmlns="http://www.w3.org/2000/svg" xmlns:xlink="http://www.w3.org/1999/xlink" x="0px" y="0px"
	 width="200px" height="200px" viewBox="0 0 200 200" enable-background="new 0 0 200 200" xml:space="preserve">
<path d="M137,45.582c0-3.635-2.902-6.582-6.483-6.582H6.483C2.903,39,0,41.947,0,45.582v108.836C0,158.053,2.903,161,6.483,161
	h124.033c3.581,0,6.483-2.947,6.483-6.582V45.582z M126,150H21V54h105V150z M194.442,60L153,82.633v34.427L194.442,144H200V60
	H194.442z M192,138h1.93L159,111.898V87.676L193.93,69H192V138z"/>
</svg>
