<?xml version="1.0" encoding="utf-8"?>
<!-- Generator: Adobe Illustrator 15.0.0, SVG Export Plug-In . SVG Version: 6.00 Build 0)  -->
<!DOCTYPE svg PUBLIC "-//W3C//DTD SVG 1.1//EN" "http://www.w3.org/Graphics/SVG/1.1/DTD/svg11.dtd">
<svg version="1.1" id="图层_1" xmlns="http://www.w3.org/2000/svg" xmlns:xlink="http://www.w3.org/1999/xlink" x="0px" y="0px"
	 width="200px" height="200px" viewBox="0 0 200 200" enable-background="new 0 0 200 200" xml:space="preserve">
<path d="M167.449,119.717c-3.928-20.367-1.559-30.768-8.186-62.315C152.637,25.854,127.496-1.02,110.15,3.264
	C108.287,0.153,81.176-8.16,60.257,24.686c-20.918,32.845-17.279,66.47-22.217,87.63c-4.938,21.162-10.135,24.277-13.643,36.221
	c-5.424,18.465,0.389,26.355,2.729,26.096c0.52,14.8,11.305,15.968,11.305,15.968s-2.297-1.979-3.508-12.074
	c10.262,26.354,35.471,21.033,35.471,21.033s-0.912-2.08-4.289-4.285c2.988,0.26,14.94-1.688,15.202-3.506
	c-0.781,0-4.42-2.336-7.018-3.506c2.598,0.131,7.926-1.816,8.967-4.674c-11.825-3.375-12.345-14.669-13.644-19.081
	c0.91,1.688,11.173,22.196,30.403,22.196s28.844-15.577,32.352-22.587c-2.857,11.684-10.525,17.784-12.473,19.083
	c1.818,3.375,15.463,1.688,14.422,3.504c-1.039,1.818-8.055,2.729-9.744,3.896c6.887,0.26,11.693,5.451,19.488,3.115
	c4.42,2.467,12.799,2.467,17.152-1.947c8.77-3.506,8.416-13.104,10.041-21.411c0.137,8.323,2.041,8.558-2.246,18.685
	C187.719,168.791,171.541,140.943,167.449,119.717z"/>
</svg>
