<?xml version="1.0" encoding="utf-8"?>
<!-- Generator: Adobe Illustrator 15.0.0, SVG Export Plug-In . SVG Version: 6.00 Build 0)  -->
<!DOCTYPE svg PUBLIC "-//W3C//DTD SVG 1.1//EN" "http://www.w3.org/Graphics/SVG/1.1/DTD/svg11.dtd">
<svg version="1.1" id="图层_1" xmlns="http://www.w3.org/2000/svg" xmlns:xlink="http://www.w3.org/1999/xlink" x="0px" y="0px"
	 width="80px" height="80px" viewBox="60 60 80 80" enable-background="new 60 60 80 80" xml:space="preserve">
<path d="M126.979,107.887c-1.571-8.147-0.623-12.307-3.274-24.926c-2.65-12.619-12.707-23.369-19.646-21.655
	c-0.745-1.245-11.589-4.57-19.957,8.569c-8.367,13.138-6.912,26.588-8.887,35.052c-1.975,8.465-4.054,9.711-5.457,14.488
	c-2.169,7.386,0.155,10.542,1.091,10.438c0.208,5.92,4.522,6.387,4.522,6.387s-0.919-0.791-1.403-4.83
	c4.105,10.542,14.188,8.414,14.188,8.414s-0.365-0.832-1.716-1.715c1.195,0.104,5.977-0.675,6.081-1.402
	c-0.313,0-1.768-0.934-2.807-1.402c1.039,0.053,3.17-0.727,3.587-1.869c-4.73-1.35-4.938-5.867-5.458-7.633
	c0.364,0.676,4.469,8.879,12.161,8.879c7.692,0,11.538-6.23,12.94-9.035c-1.143,4.674-4.21,7.114-4.988,7.634
	c0.727,1.35,6.185,0.675,5.769,1.401c-0.416,0.728-3.222,1.092-3.897,1.559c2.754,0.104,4.677,2.181,7.795,1.246
	c1.768,0.986,5.119,0.986,6.861-0.779c3.508-1.402,3.366-5.241,4.016-8.564c0.055,3.33,0.816,3.424-0.898,7.475
	C135.087,127.517,128.616,116.377,126.979,107.887z"/>
</svg>
